# xmcd CD database file
#
# Track frame offsets:
#	225
#	15661
#	27542
#	42777
#	53640
#	69092
#	87053
#	100108
#	118623
#	134676
#	146474
#	151327
#
# Disc length: 2220 seconds
#
# Revision: 0
# Processed by: cddbd v1.5.2PL0 Copyright (c) Steve Scherf et al.
# Submitted via: CDex 1.72
#
DISCID=9508a90c
DTITLE=Kitsilano - Altered States
DYEAR=2009
DGENRE=Country
TTITLE0=streets of l.a.
TTITLE1=take me back
TTITLE2=slipped away
TTITLE3=prisoners of our age
TTITLE4=comfort zone
TTITLE5=golden lady
TTITLE6=user friendly
TTITLE7=it's you
TTITLE8=canada
TTITLE9=another night
TTITLE10=lucid state
TTITLE11=the light that shines
EXTD=YEAR: 2009
EXTT0=
EXTT1=
EXTT2=
EXTT3=
EXTT4=
EXTT5=
EXTT6=
EXTT7=
EXTT8=
EXTT9=
EXTT10=
EXTT11=
PLAYORDER=
